<?xml version="1.0" encoding="utf-8"?>
<!-- Generator: Adobe Illustrator 22.0.1, SVG Export Plug-In . SVG Version: 6.00 Build 0)  -->
<svg version="1.1" id="Layer_1" xmlns="http://www.w3.org/2000/svg" xmlns:xlink="http://www.w3.org/1999/xlink" x="0px" y="0px"
	 viewBox="0 0 271 279" style="enable-background:new 0 0 271 279;" xml:space="preserve">
<style type="text/css">
	.st0{fill:#FF2D20;}
</style>
<path class="st0" d="M270.8,63.1c0-0.1-0.1-0.2-0.1-0.4c-0.1-0.2-0.2-0.5-0.3-0.7c-0.1-0.1-0.2-0.3-0.3-0.4
	c-0.1-0.2-0.2-0.4-0.4-0.5c-0.1-0.1-0.3-0.2-0.4-0.3c-0.2-0.1-0.3-0.3-0.5-0.4l0,0l0,0l-52.5-30.2c-1.4-0.8-3-0.8-4.4,0l-52.4,30.2
	l0,0l0,0c-0.2,0.1-0.3,0.3-0.5,0.4c-0.1,0.1-0.3,0.2-0.4,0.3c-0.1,0.1-0.3,0.3-0.4,0.5c-0.1,0.1-0.2,0.3-0.3,0.4
	c-0.1,0.2-0.2,0.4-0.3,0.7c-0.1,0.1-0.1,0.2-0.1,0.4c-0.1,0.4-0.1,0.8-0.1,1.1v57.4l-43.7,25.2V34.6c0-0.4-0.1-0.8-0.1-1.1
	c0-0.1-0.1-0.2-0.1-0.4c-0.1-0.2-0.2-0.5-0.3-0.7c-0.1-0.1-0.2-0.3-0.3-0.4c-0.1-0.2-0.2-0.4-0.4-0.5c-0.1-0.1-0.3-0.2-0.4-0.3
	c-0.2-0.1-0.3-0.3-0.5-0.4l0,0l0,0L59,0.6c-1.4-0.8-3-0.8-4.4,0L2.2,30.8l0,0l0,0C2,30.9,1.9,31,1.7,31.2c-0.1,0.1-0.3,0.2-0.4,0.3
	C1.1,31.6,1,31.8,0.9,32c-0.1,0.1-0.2,0.3-0.3,0.4c-0.1,0.2-0.2,0.4-0.3,0.7c-0.1,0.1-0.1,0.2-0.2,0.4C0.1,33.8,0,34.2,0,34.6v179.7
	c0,1.6,0.8,3,2.2,3.8l104.9,60.4c0.2,0.1,0.5,0.2,0.7,0.3c0.1,0,0.2,0.1,0.3,0.1c0.4,0.1,0.7,0.1,1.1,0.1s0.8,0,1.1-0.1
	c0.1,0,0.2-0.1,0.3-0.1c0.3-0.1,0.5-0.2,0.8-0.3L216.4,218c1.4-0.8,2.2-2.2,2.2-3.8v-57.4l50.3-28.9c1.4-0.8,2.2-2.2,2.2-3.8V64.3
	C270.9,63.9,270.9,63.5,270.8,63.1z M109.2,209.2l-43.6-24.7l45.8-26.4l0,0l50.3-28.9l43.7,25.1l-32,18.3L109.2,209.2z M209.7,97
	v49.8l-18.4-10.6L166,121.6V71.8l18.4,10.6L209.7,97z M214.1,39.1l43.7,25.2l-43.7,25.2l-43.7-25.2L214.1,39.1z M79.5,166.4
	L61.1,177V67.3l25.4-14.6l18.4-10.6v109.7L79.5,166.4z M56.8,9.4l43.7,25.2L56.8,59.7L13.1,34.6L56.8,9.4z M8.7,42.1L27,52.7
	l25.4,14.6v117.2v0v0c0,0.2,0.1,0.3,0.1,0.5c0,0.2,0,0.4,0.1,0.6v0c0.1,0.2,0.1,0.3,0.2,0.5c0.1,0.2,0.1,0.4,0.2,0.5c0,0,0,0,0,0
	c0.1,0.1,0.2,0.3,0.3,0.4c0.1,0.2,0.2,0.3,0.4,0.5l0,0c0.1,0.1,0.3,0.2,0.4,0.3c0.2,0.1,0.3,0.3,0.5,0.4c0,0,0,0,0,0c0,0,0,0,0,0
	l50.2,28.4v50.3L8.7,211.7V42.1z M209.7,211.7l-96.2,55.4v-50.3l71.2-40.7l25-14.2L209.7,211.7L209.7,211.7z M262.2,121.6
	l-43.7,25.2V97l25.4-14.6l18.4-10.6L262.2,121.6L262.2,121.6z"/>
</svg>
